<?xml version="1.0" standalone="no"?><!DOCTYPE svg PUBLIC "-//W3C//DTD SVG 1.1//EN" "http://www.w3.org/Graphics/SVG/1.1/DTD/svg11.dtd"><svg t="1599219989429" class="icon" viewBox="0 0 1024 1024" version="1.1" xmlns="http://www.w3.org/2000/svg" p-id="6936" xmlns:xlink="http://www.w3.org/1999/xlink" width="200" height="200"><defs><style type="text/css"></style></defs><path d="M237.568 667.6992c-48.9472-40.2944-87.4496-91.7504-115.9168-154.8288 36.6592-81.2032 90.8288-143.2064 161.536-186.88 70.7584-44.544 147.6096-66.3552 230.5536-66.3552 39.2704-0.6656 78.5408 4.5568 116.5312 15.36l43.9296-43.9296c-50.8928-18.2272-104.2944-27.3408-160.4608-27.3408-183.3984-2.6112-367.6672 109.1584-447.1296 293.4272 0 0.8704 0.8704 2.6112-0.8704 3.4816v2.6112c-0.8704 0.8704-0.8704 1.792-0.8704 1.792-0.8704 3.4816-0.8704 6.0928-0.8704 7.8336 0 2.6112 0.8704 4.352 0.8704 7.0144 0 0.8704 0 1.7408 0.8704 2.6112v1.7408c0 2.6112 0.8704 0.8704 0.8704 4.352 31.488 71.8336 75.3152 131.3792 131.4816 178.5856l39.4752-39.4752zM959.1296 505.9072c0-0.8704-0.8704-3.5328-0.8704-4.4032s0-2.6112-1.7408-4.352c-38.8608-90.624-98.20672-161.60768-177.13152-212.97664l43.0592-43.0592a27.97056 27.97056 0 1 0-39.56224-39.56224l-53.4272 53.4272-0.01024-0.00512-41.2672 41.2672 0.01024 0.00512-78.4384 78.4384-0.01024-0.00512-40.5504 40.5504 0.01024 0.00512-152.01792 152.01792-0.00512-0.01024-40.704 40.704 0.00512 0.01024-92.68736 92.68736-0.04096-0.0256-40.2432 40.2432 0.04096 0.0256-41.99424 41.99424a27.97056 27.97056 0 1 0 39.56224 39.56224L293.888 769.67424c68.09088 33.87904 140.80512 50.60096 218.112 50.60096 183.3984 2.6112 366.7968-107.4176 444.5184-291.6864 1.7408-0.8704 0.8704-3.4816 1.7408-3.4816v-2.6112c0.8704-0.8704 0.8704-1.7408 0.8704-1.7408 0.8704-3.5328 0.8704-6.144 0.8704-7.8848 0-2.6112-0.8704-4.352-0.8704-6.9632z m-350.00832-51.46624c10.75712 17.07008 16.38912 36.22912 16.38912 57.55904 0 30.5664-10.4448 57.6512-32.3072 79.4624-21.8112 21.8624-48.0256 33.1776-78.592 33.1776-21.09952 0-41.22112-6.36416-58.48064-17.20832l152.99072-152.99072z m132.56192 245.30944c-70.7584 42.8032-146.7392 64.6144-229.6832 64.6144-62.39232 0-120.84736-12.35968-176.1024-36.70016l79.6416-79.6416c27.88352 20.4544 62.18752 32.52224 99.07712 32.52224 93.44 0 167.68-74.24 167.68-167.68 0-37.6576-10.98752-70.7072-32.48128-99.11808l89.728-89.728c68.03968 43.08992 125.75232 106.9056 162.81088 188.84608-36.66432 81.20832-89.96352 143.21152-160.67072 186.88512z" p-id="6937"></path><path d="M346.9312 512.8704c0 14.0288 1.6896 27.5968 4.9152 40.5504l50.5344-50.5344c4.4544-53.9648 48.2816-97.792 102.2464-102.2464l50.7392-50.7392c-12.9536-3.1744-26.5728-4.7104-40.7552-4.7104-91.6992 0-167.68 75.9808-167.68 167.68z" p-id="6938"></path></svg>