<?xml version="1.0" standalone="no"?><!DOCTYPE svg PUBLIC "-//W3C//DTD SVG 1.1//EN" "http://www.w3.org/Graphics/SVG/1.1/DTD/svg11.dtd"><svg t="1599287770208" class="icon" viewBox="0 0 1185 1024" version="1.1" xmlns="http://www.w3.org/2000/svg" p-id="602" xmlns:xlink="http://www.w3.org/1999/xlink" width="231.4453125" height="200"><defs><style type="text/css"></style></defs><path d="M167.397053 59.284211c122.772211 5.066105 313.128421 27.594105 395.856842 92.698947v791.713684c-85.153684-19.994947-232.986947-50.122105-395.856842-57.613474V59.338105m-50.122106-50.122105v926.989474c205.446737 0 403.348211 50.122105 471.04 67.637894l25.007158-7.545263V129.562947C495.616 11.749053 142.336 9.162105 117.274947 9.162105z" p-id="603"></path><path d="M1009.178947 59.338105v826.745263c-160.336842 5.012211-310.649263 37.618526-395.856842 57.667369V151.983158c85.153684-62.625684 273.084632-87.686737 395.856842-92.698947m50.122106-50.122106c-22.581895 0-375.808 2.533053-496.047158 120.293053v866.842947l25.061052 7.545263c72.650105-20.102737 270.551579-67.691789 470.986106-67.691789V9.216z" p-id="604"></path><path d="M1174.528 936.205474h-115.226947c-15.036632 0-25.061053-10.024421-25.061053-25.061053s10.024421-25.061053 25.061053-25.061053h65.158736V84.399158c0-15.090526 10.024421-25.061053 25.007158-25.061053 15.090526 0 25.061053 10.024421 25.061053 25.061053V936.151579z m-1057.253053 0H2.048V84.399158c0-15.090526 10.024421-25.061053 25.061053-25.061053s25.061053 10.024421 25.061052 25.061053V886.029474h65.104842c15.090526 0 25.061053 10.024421 25.061053 25.061052a25.114947 25.114947 0 0 1-25.061053 25.061053z" p-id="605"></path></svg>