<?xml version="1.0" standalone="no"?><!DOCTYPE svg PUBLIC "-//W3C//DTD SVG 1.1//EN" "http://www.w3.org/Graphics/SVG/1.1/DTD/svg11.dtd"><svg t="1599287969205" class="icon" viewBox="0 0 1024 1024" version="1.1" xmlns="http://www.w3.org/2000/svg" p-id="6355" xmlns:xlink="http://www.w3.org/1999/xlink" width="200" height="200"><defs><style type="text/css"></style></defs><path d="M251.624727 931.002182c-2.397091-6.609455-4.654545-13.265455-6.702545-20.014546a1299.735273 1299.735273 0 0 0-19.083637-58.647272c-3.816727-11.054545-7.563636-22.132364-11.264-33.256728l-0.884363-2.513454-0.372364-1.163637c-5.259636-15.778909-10.705455-31.511273-16.290909-47.19709l-2.327273-7.121455-3.909818-4.980364-9.122909-10.891636a2419.781818 2419.781818 0 0 1-57.995636-74.472727l-18.432 233.332363c-0.605091 7.656727 1.954909 15.220364 7.074909 20.898909 5.515636 6.306909 13.312 10.146909 21.643636 10.65891l117.76 8.843636a489.518545 489.518545 0 0 1-0.186182-13.358546l0.093091-0.09309v-0.023273z m37.050182 78.941091l-27.554909-2.094546-131.863273-9.914182a93.882182 93.882182 0 0 1-64-31.930181 90.344727 90.344727 0 0 1-22.295272-66.978909l32.814545-418.304 38.167273 27.322181 2.048 6.050909c14.103273 41.890909 31.930182 80.058182 53.154909 113.245091 19.828364 26.530909 0.744727 46.08 21.643636 71.819637l3.956364 23.179636 9.169454 10.007273 2.001455 4.514909 5.632 16.058182c5.911273 16.290909 11.450182 32.814545 16.989091 49.338182l11.869091 35.002181c7.121455 20.293818 5.259636 19.409455 11.403636 39.936 4.002909 12.893091 6.423273 19.223273 7.773091 22.155637l1.861818 4.096-0.186182 4.421818a296.029091 296.029091 0 0 0 0 18.757818c0.465455 14.149818 8.610909 31.185455 11.776 47.569455 17.221818 24.389818 22.528 36.305455 15.639273 35.746909z m-13.265454-83.362909c3.723636 13.405091 17.314909 23.458909 33.326545 23.458909 3.211636 0 6.423273-0.442182 9.541818-1.256728l176.267637-45.428363c8.052364-2.141091-326.842182-363.752727-301.242182-271.778909l82.106182 295.005091z m-60.32291 16.756363l-106.728727-383.767272c-21.876364-78.661818 460.381091 389.213091 441.809455 394.053818l-216.203637 55.808a100.864 100.864 0 0 1-25.134545 3.211636c-43.845818 0-82.292364-28.485818-93.696-69.306182h-0.046546zM481.419636 74.007273H134.283636c-33.652364 0-60.322909 25.832727-60.322909 56.506182v334.196363l455.540364 441.390546c8.610909 8.285091 20.130909 12.869818 32.069818 12.706909a45.381818 45.381818 0 0 0 32.023273-12.706909l344.389818-333.544728c7.703273-7.354182 12.078545-17.524364 12.101818-28.16a39.330909 39.330909 0 0 0-12.241454-28.206545l-456.517819-442.181818h0.093091z m80.151273 907.357091c-28.532364 0-55.389091-10.705455-75.543273-30.347637L11.357091 491.240727V130.466909C11.357091 64.698182 66.56 11.357091 134.237091 11.357091h372.503273l474.577454 459.776a101.608727 101.608727 0 0 1 0 146.432L637.160727 950.970182a107.892364 107.892364 0 0 1-75.589818 30.347636v0.046546zM261.678545 355.607273a92.904727 92.904727 0 0 1-66.327272-27.554909 93.556364 93.556364 0 0 1-27.508364-66.327273 93.556364 93.556364 0 0 1 93.230546-93.835636h0.60509c25.041455 0 48.686545 9.774545 66.420364 27.508363a93.556364 93.556364 0 0 1 27.461818 66.327273 93.602909 93.602909 0 0 1-93.323636 93.882182h-0.558546z m0-132.561455a38.4 38.4 0 0 0-38.632727 38.679273c0 10.333091 3.956364 20.014545 11.310546 27.368727a39.656727 39.656727 0 0 0 54.690909 0 38.539636 38.539636 0 0 0 0-54.690909 38.493091 38.493091 0 0 0-27.368728-11.264V222.952727v0.093091z" p-id="6356"></path></svg>