<?xml version="1.0" standalone="no"?><!DOCTYPE svg PUBLIC "-//W3C//DTD SVG 1.1//EN" "http://www.w3.org/Graphics/SVG/1.1/DTD/svg11.dtd"><svg t="1599403559638" class="icon" viewBox="0 0 1024 1024" version="1.1" xmlns="http://www.w3.org/2000/svg" p-id="42201" xmlns:xlink="http://www.w3.org/1999/xlink" width="200" height="200"><defs><style type="text/css"></style></defs><path d="M609.211733 547.976533c-0.136533 9.693867 3.618133 19.012267 10.376534 25.941334 6.7584 6.929067 16.008533 10.888533 25.668266 11.025066 9.8304 0.136533 19.319467-3.720533 26.282667-10.683733s10.820267-16.452267 10.683733-26.282667c0.238933-13.175467-6.656-25.4976-18.056533-32.1536a36.58752 36.58752 0 0 0-36.898133 0c-11.400533 6.656-18.295467 18.944-18.056534 32.1536z m121.685334 0c0 20.1728 16.349867 36.522667 36.522666 36.522667s36.522667-16.349867 36.522667-36.522667-16.349867-36.522667-36.522667-36.522666c-9.693867 0-18.978133 3.857067-25.8048 10.683733-6.8608 6.8608-10.717867 16.145067-10.717866 25.838933z m121.719466 0c0 20.1728 16.349867 36.522667 36.522667 36.522667s36.522667-16.349867 36.522667-36.522667-16.349867-36.522667-36.522667-36.522666-36.522667 16.349867-36.522667 36.522666z m0 0" p-id="42202"></path><path d="M962.628267 694.510933h-275.490134l-77.9264 73.0112v-73.0112h-37.000533v-317.371733h390.417067m60.381866-60.416H511.829333v438.135467h48.674134v136.635733l81.954133-76.8 63.8976-59.869867H1022.976l0.034133-438.101333zM195.413333 254.464V164.829867h486.8096v89.634133H195.413333z m0 151.893333V316.7232H390.144v89.634133H195.413333z m0 146.2272v-89.634133H390.144v89.634133H195.413333z m0 152.098134v-89.634134H390.144v89.634134H195.413333z m0 0" p-id="42203"></path><path d="M787.319467 852.241067v80.759466H90.282667v-843.093333h702.8736v178.141867h83.7632V0.3072H0.682667V1022.634667h876.270933v-170.3936h-89.634133z m0 0" p-id="42204"></path></svg>