<?xml version="1.0" standalone="no"?><!DOCTYPE svg PUBLIC "-//W3C//DTD SVG 1.1//EN" "http://www.w3.org/Graphics/SVG/1.1/DTD/svg11.dtd"><svg t="1599403446977" class="icon" viewBox="0 0 1024 1024" version="1.1" xmlns="http://www.w3.org/2000/svg" p-id="39682" xmlns:xlink="http://www.w3.org/1999/xlink" width="200" height="200"><defs><style type="text/css"></style></defs><path d="M336 727.4c-12.5-10.7-28.5-16.4-44.9-16.2H183.4c-34.1-0.2-61.7-27.8-61.9-61.9V293.9c0.5-33.9 11-61.2 44.9-61.5h504.5c8 0 15.4-4.3 19.4-11.2 4-6.9 4-29.5 0-36.4-4-6.9-11.4-11.2-19.4-11.2H166.4c-58.7 0.2-106.4 47.6-106.8 106.3v369.4c-0.1 28.5 11.1 55.8 31.1 76 20 20.2 47.3 31.6 75.7 31.7h126.1c5-0.1 9.9 1.5 13.9 4.5l33.7 28.7c9.3 6.3 21.9 4.8 29.4-3.6s7.6-21.1 0.2-29.6L336 727.4z m553.9-335.3c-6 0-11.7 2.4-15.9 6.6-4.2 4.2-6.6 9.9-6.6 15.9v234.7c0.1 16.5-6.3 32.5-18 44.2a62.169 62.169 0 0 1-44 18.6h-126c-16.4-0.3-32.4 5.5-44.9 16.2L499.9 843.2c-8.4 7.2-20.8 7.2-29.2 0-9.4-8.1-23.6-6.9-31.6 2.5-8.1 9.4-7 23.6 2.5 31.6 25 21.5 62 21.5 87.1 0l134.7-114.9c4-3.4 9.1-5.3 14.4-5.4h126.1c28.8 0.4 56.5-10.8 76.9-31.1 20.4-20.3 31.9-47.9 31.7-76.6V414.6c0-6-2.4-11.7-6.6-15.9-4.3-4.2-10-6.6-16-6.6z m0 0" p-id="39683"></path><path d="M441.1 468.4c0 16 8.6 30.9 22.4 38.9 13.9 8 31 8 44.9 0 13.9-8 22.4-22.8 22.4-38.9 0-16-8.6-30.9-22.4-38.9a45 45 0 0 0-44.9 0c-13.9 8.1-22.4 22.9-22.4 38.9z m0 0M216.7 468.4c0 16 8.6 30.9 22.4 38.9 13.9 8 31 8 44.9 0 13.9-8 22.4-22.8 22.4-38.9 0-16-8.6-30.9-22.4-38.9a45 45 0 0 0-44.9 0c-13.9 8.1-22.4 22.9-22.4 38.9z m0 0M665.5 468.4c0 16 8.6 30.9 22.4 38.9 13.9 8 31 8 44.9 0 13.9-8 22.4-22.8 22.4-38.9 0-16-8.6-30.9-22.4-38.9a45 45 0 0 0-44.9 0c-13.8 8.1-22.4 22.9-22.4 38.9z m0 0M934.8 218.4h-67.3v-68.2c0-12.4-10.1-22.4-22.4-22.4-12.4 0-22.4 10-22.4 22.4v68.2h-67.3c-12.4 0-22.4 10-22.4 22.4 0 12.4 10 22.4 22.4 22.4h67.3v67.3c0 12.4 10.1 22.4 22.4 22.4 12.4 0 22.4-10 22.4-22.4v-67.3h67.3c12.4 0 22.4-10 22.4-22.4 0.1-12.3-10-22.4-22.4-22.4z m0 0" p-id="39684"></path></svg>