<?xml version="1.0" standalone="no"?><!DOCTYPE svg PUBLIC "-//W3C//DTD SVG 1.1//EN" "http://www.w3.org/Graphics/SVG/1.1/DTD/svg11.dtd"><svg t="1599287918640" class="icon" viewBox="0 0 1024 1024" version="1.1" xmlns="http://www.w3.org/2000/svg" p-id="5581" xmlns:xlink="http://www.w3.org/1999/xlink" width="200" height="200"><defs><style type="text/css"></style></defs><path d="M878.097067 387.054933a28.074667 28.074667 0 0 0-31.1296 3.037867l-164.6592 135.150933-146.602667-231.509333c-4.881067-7.645867-13.824-12.3904-23.278933-12.526933-9.472 0-18.3808 4.727467-23.261867 12.3904L341.845333 525.124267l-163.362133-134.894934a28.5696 28.5696 0 0 0-31.197867-3.0208c-10.018133 5.2736-15.445333 16.059733-13.499733 26.743467l32.1536 178.5344c2.525867 13.9776 16.5888 23.3472 31.3344 21.0944 14.7456-2.372267 24.661333-15.701333 22.289067-29.6448l-19.336534-107.485867 130.372267 107.6224c5.9904 4.983467 14.199467 7.2192 21.9648 6.0416 7.936-1.194667 14.8992-5.6832 18.944-12.1344l140.765867-221.252266 139.8272 221.115733c4.1984 6.468267 11.1616 10.9568 18.944 12.270933 7.918933 1.160533 16.008533-0.9216 21.9648-5.9392l131.464533-107.741866-64.034133 344.149333-497.3056-0.119467-22.715734-124.228266c-2.491733-13.960533-16.554667-23.296-31.300266-20.9408-14.7968 2.372267-24.661333 15.6672-22.186667 29.627733l26.624 145.4592c2.2528 12.2368 13.499733 21.230933 26.760533 21.230933l542.941867 0.136534c13.124267 0 24.3712-8.96 26.760533-21.230934l81.339734-436.599466c2.0992-10.6496-3.191467-21.4528-13.2608-26.862934zM457.693867 203.639467c0 28.3648 24.3712 51.438933 54.3232 51.438933 29.969067 0 54.289067-23.074133 54.289066-51.438933 0-28.347733-24.32-51.421867-54.289066-51.421867-29.952 0.119467-54.3232 23.074133-54.3232 51.421867zM77.6704 306.500267c0 28.347733 24.3712 51.438933 54.3232 51.438933 29.9008 0 54.289067-23.0912 54.289067-51.438933s-24.388267-51.438933-54.289067-51.438934c-29.952 0-54.3232 23.0912-54.3232 51.438934z m0 0M837.7344 306.500267c0 28.347733 24.388267 51.438933 54.3232 51.438933 29.969067 0 54.289067-23.0912 54.289067-51.438933s-24.32-51.438933-54.289067-51.438934c-29.934933 0-54.3232 23.0912-54.3232 51.438934z m0 0" fill="" p-id="5582"></path><path d="M388.334933 792.388267l-48.981333-158.088534h29.9008l34.679467 116.957867 33.5872-116.957867h29.371733l-49.152 158.088534h-29.405867z m115.012267 0v-158.088534h27.613867v158.088534h-27.613867z m77.294933 0v-158.088534h44.4416c16.554667 0 27.392 0.785067 32.426667 2.2528 8.0896 2.491733 14.7456 7.6288 20.036267 15.6672 5.341867 8.0384 7.936 18.193067 7.936 30.8736 0 11.4688-2.2016 20.957867-6.775467 28.757334-4.625067 7.748267-10.308267 13.175467-17.134933 16.196266-6.826667 3.191467-18.653867 4.744533-35.3792 4.744534H608.085333v59.5968h-27.4432z m27.613867-131.345067v44.987733h15.291733c10.308267 0 17.3056-0.648533 20.8896-2.116266 3.7888-1.3312 6.741333-3.84 9.0624-7.406934 2.3552-3.5328 3.4816-7.901867 3.4816-13.175466a23.722667 23.722667 0 0 0-3.6352-13.312c-2.491733-3.566933-5.4272-6.0416-9.0112-7.236267-3.6352-1.194667-11.1616-1.8432-22.715733-1.8432h-13.3632v0.1024z m0 0" fill="" p-id="5583"></path></svg>