<?xml version="1.0" standalone="no"?><!DOCTYPE svg PUBLIC "-//W3C//DTD SVG 1.1//EN" "http://www.w3.org/Graphics/SVG/1.1/DTD/svg11.dtd"><svg t="1599288453665" class="icon" viewBox="0 0 1024 1024" version="1.1" xmlns="http://www.w3.org/2000/svg" p-id="10566" xmlns:xlink="http://www.w3.org/1999/xlink" width="200" height="200"><defs><style type="text/css"></style></defs><path d="M962.2016 340.864c-21.2224-24.32-153.1904-180.0192-203.52-234.368a67.4304 67.4304 0 0 0-50.8672-29.2864c-23.7312-0.9472-407.04 0-407.04 0a63.616 63.616 0 0 0-51.584 28.4416c-50.5088 59.136-164.3776 189.44-202.8032 235.2896a92.5184 92.5184 0 0 0 0 117.1456c62.464 72.6784 234.368 269.9264 407.04 468.6592 24.448 28.3392 39.936 29.3376 50.8672 29.3376s25.8816-0.5376 50.9184-29.3376c171.008-196.8896 335.1296-385.0496 407.04-468.6592a96.3328 96.3328 0 0 0-0.0512-117.2224z m-50.9184 87.8592c-57.3184 66.816-229.632 258.3296-366.08 416.0768-19.968 23.04-32.0256 23.3728-40.576 23.3728s-20.992-0.8448-40.576-23.3728C326.1696 685.6448 147.0976 486.9632 97.3056 428.7488a46.6176 46.6176 0 0 1 0-58.5728c30.72-36.5824 137.6-157.9264 177.9968-205.0048a70.9376 70.9376 0 0 1 66.816-29.3376h324.8128a68.1728 68.1728 0 0 1 66.2272 29.3376c38.9632 44.7744 161.28 185.5232 178.048 205.0048a49.3056 49.3056 0 0 1 0.0512 58.5728zM504.3968 752.2304c-44.5184-59.776-202.3936-251.52-242.6624-306.3296l-3.0976-3.8912a30.9248 30.9248 0 0 0-30.0544-13.6192h-2.176V387.072h89.4208c2.56 0 3.2256 0 5.12 2.9184l183.0912 235.52 183.3728-234.8288c2.3296-3.584 3.1744-3.584 5.6064-3.584h89.0112v41.3696h-2.0224a30.9248 30.9248 0 0 0-30.0032 13.696c-0.7168 0.896-1.4336 1.9712-2.56 3.1744-40.7808 55.1936-198.5792 247.1168-243.0464 306.8928z m0 0" p-id="10567"></path></svg>